<svg xmlns="http://www.w3.org/2000/svg" width="148" height="162" viewBox="0 0 148 162"><defs><style>.a{opacity:0.25;}.b{fill:#2f2e33;}.c{fill:none;stroke:#949496;stroke-width:4px;}</style></defs><g class="a" transform="translate(-886 -199)"><g class="a" transform="translate(862.989 199)"><g transform="translate(23.011)"><path class="b" d="M168.27,156.539H163.7V13.652a2.735,2.735,0,0,0-2.741-2.73H109.8a2.735,2.735,0,0,0-2.741,2.73V25.483h-5.481V13.652a2.735,2.735,0,0,0-2.741-2.73H86.962V2.73a2.741,2.741,0,0,0-5.481,0v8.191H69.6a2.735,2.735,0,0,0-2.741,2.73V25.483H58.641a2.735,2.735,0,0,0-2.741,2.73V50.966H33.061A2.735,2.735,0,0,0,30.32,53.7V156.539H25.752a2.73,2.73,0,1,0,0,5.461H168.27a2.73,2.73,0,1,0,0-5.461ZM72.344,16.382H96.1v9.1H72.344ZM63.209,156.539H61.381v-4.551a2.741,2.741,0,0,0-5.481,0v4.551H54.073v-9.1h9.136ZM81.48,86.461v70.079H68.69V144.708a2.735,2.735,0,0,0-2.741-2.73H51.332a2.735,2.735,0,0,0-2.741,2.73v11.831H35.8V56.427H81.48V86.461Zm2.741-35.494H61.381V30.944H107.06V83.73h-20.1v-9.1h8.222a2.73,2.73,0,1,0,0-5.461H86.962v-9.1h8.222a2.73,2.73,0,1,0,0-5.461H86.962V53.7A2.735,2.735,0,0,0,84.221,50.966Zm48.42,105.573H86.962V89.191h45.679Zm25.58,0h-20.1V82.82a2.741,2.741,0,0,0-5.481,0v.91h-5.481v-.91a2.741,2.741,0,0,0-5.481,0v.91h-9.136V16.382h45.679V156.539Z" transform="translate(-23.011)"/><path class="b" d="M255.87,355.911a2.747,2.747,0,0,0,2.747-2.746V301.9a2.747,2.747,0,0,0-5.493,0v51.269A2.746,2.746,0,0,0,255.87,355.911Z" transform="translate(-180.043 -204.897)"/><path class="b" d="M290.387,355.911a2.747,2.747,0,0,0,2.747-2.746V301.9a2.747,2.747,0,0,0-5.493,0v51.269A2.746,2.746,0,0,0,290.387,355.911Z" transform="translate(-203.598 -204.897)"/><path class="b" d="M324.9,355.911a2.747,2.747,0,0,0,2.747-2.746V301.9a2.747,2.747,0,0,0-5.493,0v51.269A2.747,2.747,0,0,0,324.9,355.911Z" transform="translate(-227.153 -204.897)"/><path class="b" d="M336.409,89.695a2.746,2.746,0,0,0,2.746-2.746V83.286a2.746,2.746,0,1,0-5.493,0v3.662A2.746,2.746,0,0,0,336.409,89.695Z" transform="translate(-235.004 -55.066)"/><path class="b" d="M370.926,89.695a2.746,2.746,0,0,0,2.747-2.746V83.286a2.747,2.747,0,0,0-5.493,0v3.662A2.746,2.746,0,0,0,370.926,89.695Z" transform="translate(-258.559 -55.066)"/><path class="b" d="M405.443,89.695a2.746,2.746,0,0,0,2.746-2.746V83.286a2.746,2.746,0,1,0-5.493,0v3.662A2.746,2.746,0,0,0,405.443,89.695Z" transform="translate(-282.163 -55.066)"/><path class="b" d="M336.409,147.222a2.746,2.746,0,0,0,2.746-2.747v-3.662a2.746,2.746,0,1,0-5.493,0v3.662A2.746,2.746,0,0,0,336.409,147.222Z" transform="translate(-235.004 -94.397)"/><path class="b" d="M370.926,147.222a2.746,2.746,0,0,0,2.747-2.747v-3.662a2.747,2.747,0,1,0-5.493,0v3.662A2.746,2.746,0,0,0,370.926,147.222Z" transform="translate(-258.559 -94.397)"/><path class="b" d="M405.443,147.222a2.746,2.746,0,0,0,2.746-2.747v-3.662a2.746,2.746,0,1,0-5.493,0v3.662A2.746,2.746,0,0,0,405.443,147.222Z" transform="translate(-282.163 -94.397)"/><path class="b" d="M336.409,204.751A2.746,2.746,0,0,0,339.156,202v-3.662a2.746,2.746,0,1,0-5.493,0V202A2.746,2.746,0,0,0,336.409,204.751Z" transform="translate(-235.004 -133.73)"/><path class="b" d="M370.926,204.751A2.746,2.746,0,0,0,373.673,202v-3.662a2.747,2.747,0,1,0-5.493,0V202A2.746,2.746,0,0,0,370.926,204.751Z" transform="translate(-258.559 -133.73)"/><path class="b" d="M405.443,204.751A2.746,2.746,0,0,0,408.19,202v-3.662a2.746,2.746,0,1,0-5.493,0V202A2.746,2.746,0,0,0,405.443,204.751Z" transform="translate(-282.163 -133.73)"/><path class="b" d="M94.792,227.762a2.746,2.746,0,0,0,2.746-2.746v-3.662a2.747,2.747,0,1,0-5.493,0v3.662A2.747,2.747,0,0,0,94.792,227.762Z" transform="translate(-70.072 -149.463)"/><path class="b" d="M129.309,227.762a2.746,2.746,0,0,0,2.746-2.746v-3.662a2.746,2.746,0,1,0-5.493,0v3.662A2.746,2.746,0,0,0,129.309,227.762Z" transform="translate(-93.676 -149.463)"/><path class="b" d="M163.826,227.762a2.746,2.746,0,0,0,2.746-2.746v-3.662a2.747,2.747,0,1,0-5.493,0v3.662A2.746,2.746,0,0,0,163.826,227.762Z" transform="translate(-117.231 -149.463)"/><path class="b" d="M94.792,285.29a2.746,2.746,0,0,0,2.746-2.746v-3.662a2.747,2.747,0,1,0-5.493,0v3.662A2.747,2.747,0,0,0,94.792,285.29Z" transform="translate(-70.072 -188.795)"/><path class="b" d="M129.309,285.29a2.746,2.746,0,0,0,2.746-2.746v-3.662a2.746,2.746,0,1,0-5.493,0v3.662A2.746,2.746,0,0,0,129.309,285.29Z" transform="translate(-93.676 -188.795)"/><path class="b" d="M163.826,285.29a2.746,2.746,0,0,0,2.746-2.746v-3.662a2.747,2.747,0,1,0-5.493,0v3.662A2.746,2.746,0,0,0,163.826,285.29Z" transform="translate(-117.231 -188.795)"/><path class="b" d="M94.792,342.818a2.746,2.746,0,0,0,2.746-2.746v-3.662a2.747,2.747,0,0,0-5.493,0v3.662A2.746,2.746,0,0,0,94.792,342.818Z" transform="translate(-70.072 -228.127)"/><path class="b" d="M129.309,342.818a2.746,2.746,0,0,0,2.746-2.746v-3.662a2.746,2.746,0,0,0-5.493,0v3.662A2.746,2.746,0,0,0,129.309,342.818Z" transform="translate(-93.676 -228.127)"/><path class="b" d="M163.826,342.818a2.746,2.746,0,0,0,2.746-2.746v-3.662a2.747,2.747,0,0,0-5.493,0v3.662A2.746,2.746,0,0,0,163.826,342.818Z" transform="translate(-117.231 -228.127)"/><path class="b" d="M94.792,400.346a2.746,2.746,0,0,0,2.746-2.746v-3.662a2.747,2.747,0,1,0-5.493,0V397.6A2.746,2.746,0,0,0,94.792,400.346Z" transform="translate(-70.072 -267.46)"/><path class="b" d="M129.309,400.346a2.746,2.746,0,0,0,2.746-2.746v-3.662a2.746,2.746,0,1,0-5.493,0V397.6A2.746,2.746,0,0,0,129.309,400.346Z" transform="translate(-93.676 -267.46)"/><path class="b" d="M163.826,400.346a2.746,2.746,0,0,0,2.746-2.746v-3.662a2.747,2.747,0,1,0-5.493,0V397.6A2.746,2.746,0,0,0,163.826,400.346Z" transform="translate(-117.231 -267.46)"/><path class="b" d="M405.443,262.279a2.746,2.746,0,0,0,2.746-2.746V255.87a2.746,2.746,0,1,0-5.493,0v3.662A2.746,2.746,0,0,0,405.443,262.279Z" transform="translate(-282.163 -173.062)"/><path class="b" d="M405.443,319.807a2.746,2.746,0,0,0,2.746-2.746V313.4a2.746,2.746,0,0,0-5.493,0v3.662A2.746,2.746,0,0,0,405.443,319.807Z" transform="translate(-282.163 -212.395)"/><path class="b" d="M405.443,377.335a2.746,2.746,0,0,0,2.746-2.746v-3.662a2.746,2.746,0,0,0-5.493,0v3.662A2.746,2.746,0,0,0,405.443,377.335Z" transform="translate(-282.163 -251.727)"/><path class="b" d="M405.443,434.863a2.746,2.746,0,0,0,2.746-2.746v-3.662a2.746,2.746,0,1,0-5.493,0v3.662A2.746,2.746,0,0,0,405.443,434.863Z" transform="translate(-282.163 -291.174)"/><path class="b" d="M200.05,129.309a2.746,2.746,0,0,0-2.747-2.747H175.331a2.746,2.746,0,0,0,0,5.493H197.3A2.746,2.746,0,0,0,200.05,129.309Z" transform="translate(-125.101 -86.525)"/></g></g><path class="c" d="M2909.547,203.263,3050.51,356.685" transform="translate(-2020)"/></g></svg>